<svg width="25" height="24" viewBox="0 0 25 24" fill="none" xmlns="http://www.w3.org/2000/svg">
<path d="M20.4056 7.71938L15.1556 2.46938C15.0859 2.39975 15.0032 2.34454 14.9121 2.3069C14.8211 2.26926 14.7235 2.24992 14.625 2.25H5.625C5.22718 2.25 4.84564 2.40804 4.56434 2.68934C4.28304 2.97064 4.125 3.35218 4.125 3.75V20.25C4.125 20.6478 4.28304 21.0294 4.56434 21.3107C4.84564 21.592 5.22718 21.75 5.625 21.75H19.125C19.5228 21.75 19.9044 21.592 20.1857 21.3107C20.467 21.0294 20.625 20.6478 20.625 20.25V8.25C20.6251 8.15148 20.6057 8.05391 20.5681 7.96286C20.5305 7.87182 20.4753 7.78908 20.4056 7.71938ZM15.1556 14.0306C15.086 14.1004 15.0033 14.1557 14.9122 14.1934C14.8212 14.2312 14.7236 14.2506 14.625 14.2506C14.5264 14.2506 14.4288 14.2312 14.3378 14.1934C14.2467 14.1557 14.164 14.1004 14.0944 14.0306L13.125 13.0603V17.25C13.125 17.4489 13.046 17.6397 12.9053 17.7803C12.7647 17.921 12.5739 18 12.375 18C12.1761 18 11.9853 17.921 11.8447 17.7803C11.704 17.6397 11.625 17.4489 11.625 17.25V13.0603L10.6556 14.0306C10.5859 14.1003 10.5032 14.1556 10.4122 14.1933C10.3211 14.231 10.2235 14.2504 10.125 14.2504C10.0265 14.2504 9.92887 14.231 9.83783 14.1933C9.74678 14.1556 9.66406 14.1003 9.59437 14.0306C9.52469 13.9609 9.46942 13.8782 9.4317 13.7872C9.39399 13.6961 9.37458 13.5985 9.37458 13.5C9.37458 13.4015 9.39399 13.3039 9.4317 13.2128C9.46942 13.1218 9.52469 13.0391 9.59437 12.9694L11.8444 10.7194C11.914 10.6496 11.9967 10.5943 12.0878 10.5566C12.1788 10.5188 12.2764 10.4994 12.375 10.4994C12.4736 10.4994 12.5712 10.5188 12.6622 10.5566C12.7533 10.5943 12.836 10.6496 12.9056 10.7194L15.1556 12.9694C15.2254 13.039 15.2807 13.1217 15.3184 13.2128C15.3562 13.3038 15.3756 13.4014 15.3756 13.5C15.3756 13.5986 15.3562 13.6962 15.3184 13.7872C15.2807 13.8783 15.2254 13.961 15.1556 14.0306ZM14.625 8.25V4.125L18.75 8.25H14.625Z" fill="black"/>
</svg>
