<svg width="24" height="28" viewBox="0 0 24 28" fill="none" xmlns="http://www.w3.org/2000/svg">
<path d="M10.2929 6.29289C10.6834 5.90237 11.3166 5.90237 11.7071 6.29289C12.0976 6.68342 12.0976 7.31658 11.7071 7.70711L6.414 13H20C20.5128 13 20.9355 13.386 20.9933 13.8834L21 14C21 14.5523 20.5523 15 20 15H6.414L11.7071 20.2929C12.0676 20.6534 12.0953 21.2206 11.7903 21.6129L11.7071 21.7071C11.3166 22.0976 10.6834 22.0976 10.2929 21.7071L3.29289 14.7071L3.21969 14.6254C3.21737 14.6226 3.21507 14.6197 3.21279 14.6167C3.20728 14.6098 3.20175 14.6026 3.19633 14.5953C3.17849 14.5711 3.16172 14.5463 3.14607 14.5207C3.13861 14.5086 3.1315 14.4964 3.12467 14.4841C3.11379 14.4643 3.10338 14.4439 3.09365 14.4231C3.08568 14.4061 3.0782 14.3888 3.07123 14.3713C3.06332 14.3516 3.05612 14.3318 3.04955 14.3117C3.04473 14.2969 3.0401 14.2815 3.03585 14.266C3.02983 14.2444 3.02464 14.2227 3.02016 14.2008C3.0167 14.1834 3.01363 14.1659 3.01102 14.1485C3.00376 14.1004 3 14.0506 3 14L3.00397 14.0893C3.00189 14.066 3.00063 14.0427 3.00019 14.0194L3 14C3 13.9936 3.00006 13.9872 3.00018 13.9808C3.0006 13.958 3.00187 13.9343 3.00397 13.9107C3.00577 13.8902 3.00811 13.8705 3.01102 13.851C3.01363 13.8341 3.0167 13.8166 3.02024 13.7993C3.02464 13.7773 3.02983 13.7556 3.03572 13.7342C3.0401 13.7185 3.04473 13.7031 3.04974 13.6879C3.05612 13.6682 3.06332 13.6484 3.0711 13.6289C3.0782 13.6112 3.08568 13.5939 3.09367 13.5768C3.10338 13.5561 3.11379 13.5357 3.12488 13.5157C3.1315 13.5036 3.13861 13.4914 3.146 13.4793C3.16172 13.4537 3.17849 13.4289 3.19631 13.4048C3.22531 13.3657 3.2575 13.3283 3.29289 13.2929L3.21279 13.3833C3.23767 13.3515 3.26443 13.3214 3.29289 13.2929L10.2929 6.29289Z" fill="#0B0B0B"/>
</svg>
