<svg width="25" height="24" viewBox="0 0 25 24" fill="none" xmlns="http://www.w3.org/2000/svg">
<path d="M23.125 9.75H22.1125L19.5081 3.89062C19.3903 3.62553 19.1981 3.40029 18.9548 3.24222C18.7115 3.08414 18.4276 3 18.1375 3H7.1125C6.82238 3 6.53849 3.08414 6.29522 3.24222C6.05195 3.40029 5.85974 3.62553 5.74188 3.89062L3.1375 9.75H2.125C1.92609 9.75 1.73532 9.82902 1.59467 9.96967C1.45402 10.1103 1.375 10.3011 1.375 10.5C1.375 10.6989 1.45402 10.8897 1.59467 11.0303C1.73532 11.171 1.92609 11.25 2.125 11.25H2.875V18.75C2.875 19.1478 3.03304 19.5294 3.31434 19.8107C3.59564 20.092 3.97718 20.25 4.375 20.25H6.625C7.02282 20.25 7.40436 20.092 7.68566 19.8107C7.96696 19.5294 8.125 19.1478 8.125 18.75V17.25H17.125V18.75C17.125 19.1478 17.283 19.5294 17.5643 19.8107C17.8456 20.092 18.2272 20.25 18.625 20.25H20.875C21.2728 20.25 21.6544 20.092 21.9357 19.8107C22.217 19.5294 22.375 19.1478 22.375 18.75V11.25H23.125C23.3239 11.25 23.5147 11.171 23.6553 11.0303C23.796 10.8897 23.875 10.6989 23.875 10.5C23.875 10.3011 23.796 10.1103 23.6553 9.96967C23.5147 9.82902 23.3239 9.75 23.125 9.75ZM7.1125 4.5H18.1375L20.4709 9.75H4.77906L7.1125 4.5ZM6.625 18.75H4.375V17.25H6.625V18.75ZM18.625 18.75V17.25H20.875V18.75H18.625ZM20.875 15.75H4.375V11.25H20.875V15.75ZM5.875 13.5C5.875 13.3011 5.95402 13.1103 6.09467 12.9697C6.23532 12.829 6.42609 12.75 6.625 12.75H8.125C8.32391 12.75 8.51468 12.829 8.65533 12.9697C8.79598 13.1103 8.875 13.3011 8.875 13.5C8.875 13.6989 8.79598 13.8897 8.65533 14.0303C8.51468 14.171 8.32391 14.25 8.125 14.25H6.625C6.42609 14.25 6.23532 14.171 6.09467 14.0303C5.95402 13.8897 5.875 13.6989 5.875 13.5ZM16.375 13.5C16.375 13.3011 16.454 13.1103 16.5947 12.9697C16.7353 12.829 16.9261 12.75 17.125 12.75H18.625C18.8239 12.75 19.0147 12.829 19.1553 12.9697C19.296 13.1103 19.375 13.3011 19.375 13.5C19.375 13.6989 19.296 13.8897 19.1553 14.0303C19.0147 14.171 18.8239 14.25 18.625 14.25H17.125C16.9261 14.25 16.7353 14.171 16.5947 14.0303C16.454 13.8897 16.375 13.6989 16.375 13.5Z" fill="#808080"/>
</svg>
