<svg width="20" height="20" viewBox="0 0 20 20" fill="none" xmlns="http://www.w3.org/2000/svg">
<rect width="20" height="20" rx="10" fill="#959595"/>
<path d="M6.69906 12.7876C6.4917 12.9949 6.48747 13.3631 6.70329 13.5789C6.92334 13.7947 7.2915 13.7905 7.49463 13.5874L9.99984 11.0822L12.5008 13.5831C12.7124 13.7947 13.0763 13.7947 13.2922 13.5789C13.508 13.3589 13.508 12.9991 13.2964 12.7876L10.7954 10.2866L13.2964 7.78138C13.508 7.56979 13.5122 7.20586 13.2922 6.99003C13.0763 6.77421 12.7124 6.77421 12.5008 6.9858L9.99984 9.48678L7.49463 6.9858C7.2915 6.77845 6.91911 6.76998 6.70329 6.99003C6.48747 7.20586 6.4917 7.57825 6.69906 7.78138L9.20003 10.2866L6.69906 12.7876Z" fill="white"/>
</svg>
