<svg width="20" height="18" viewBox="0 0 20 18" fill="none" xmlns="http://www.w3.org/2000/svg">
<path d="M10 13V10M10 10V7M10 10H7M10 10H13M1 3V13.8C1 14.9201 1 15.4798 1.21799 15.9076C1.40973 16.2839 1.71547 16.5905 2.0918 16.7822C2.5192 17 3.07899 17 4.19691 17H15.8031C16.921 17 17.48 17 17.9074 16.7822C18.2837 16.5905 18.5905 16.2841 18.7822 15.9078C19.0002 15.48 19.0002 14.9199 19.0002 13.7998L19.0002 6.19978C19.0002 5.07967 19.0002 4.51962 18.7822 4.0918C18.5905 3.71547 18.2839 3.40973 17.9076 3.21799C17.4798 3 16.9201 3 15.8 3H10M1 3H10M1 3C1 1.89543 1.89543 1 3 1H6.67452C7.1637 1 7.40886 1 7.63904 1.05526C7.84311 1.10425 8.03785 1.18526 8.2168 1.29492C8.41857 1.41857 8.59181 1.59182 8.9375 1.9375L10 3" stroke="black" stroke-width="2" stroke-linecap="round" stroke-linejoin="round"/>
</svg>
