<svg width="20" height="18" viewBox="0 0 20 18" fill="none" xmlns="http://www.w3.org/2000/svg">
<path d="M7.33814 12.9905C10.4946 12.8151 13 10.2003 13 7C13 3.68629 10.3137 1 7 1C3.68629 1 1 3.68629 1 7C1 8.18071 1.34094 9.2817 1.92989 10.21L1.50586 11.482L1.50518 11.4839C1.34278 11.9711 1.26154 12.2149 1.31938 12.3771C1.36979 12.5184 1.48169 12.6299 1.62305 12.6803C1.78472 12.7379 2.02675 12.6573 2.51069 12.4959L2.51758 12.4939L3.79004 12.0698C4.7183 12.6588 5.81935 12.9998 7.00006 12.9998C7.11352 12.9998 7.22624 12.9967 7.33814 12.9905ZM7.33814 12.9905C7.33822 12.9907 7.33806 12.9902 7.33814 12.9905ZM7.33814 12.9905C8.15907 15.3259 10.3841 17.0002 13.0001 17.0002C14.1808 17.0002 15.2817 16.6588 16.2099 16.0698L17.482 16.4939L17.4845 16.4944C17.9717 16.6567 18.2158 16.7381 18.378 16.6803C18.5194 16.6299 18.6299 16.5184 18.6803 16.3771C18.7382 16.2146 18.6572 15.9706 18.4943 15.4821L18.0703 14.21L18.2123 13.9746C18.7138 13.0979 18.9995 12.0823 18.9995 11C18.9995 7.6863 16.3137 5 13 5L12.7754 5.00414L12.6621 5.00967" stroke="black" stroke-width="2" stroke-linecap="round" stroke-linejoin="round"/>
</svg>
