<svg width="25" height="24" viewBox="0 0 25 24" fill="none" xmlns="http://www.w3.org/2000/svg">
<path d="M21.4353 10.189L13.9353 2.68899C13.654 2.4079 13.2727 2.25 12.875 2.25C12.4774 2.25 12.096 2.4079 11.8147 2.68899L4.3147 10.189C4.17473 10.3279 4.06378 10.4933 3.9883 10.6755C3.91282 10.8577 3.87431 11.053 3.87501 11.2502V20.2502C3.87501 20.4492 3.95403 20.6399 4.09468 20.7806C4.23533 20.9212 4.4261 21.0002 4.62501 21.0002H10.625C10.8239 21.0002 11.0147 20.9212 11.1553 20.7806C11.296 20.6399 11.375 20.4492 11.375 20.2502V15.0002H14.375V20.2502C14.375 20.4492 14.454 20.6399 14.5947 20.7806C14.7353 20.9212 14.9261 21.0002 15.125 21.0002H21.125C21.3239 21.0002 21.5147 20.9212 21.6553 20.7806C21.796 20.6399 21.875 20.4492 21.875 20.2502V11.2502C21.8757 11.053 21.8372 10.8577 21.7617 10.6755C21.6862 10.4933 21.5753 10.3279 21.4353 10.189ZM20.375 19.5002H15.875V14.2502C15.875 14.0513 15.796 13.8606 15.6553 13.7199C15.5147 13.5793 15.3239 13.5002 15.125 13.5002H10.625C10.4261 13.5002 10.2353 13.5793 10.0947 13.7199C9.95403 13.8606 9.87501 14.0513 9.87501 14.2502V19.5002H5.37501V11.2502L12.875 3.75024L20.375 11.2502V19.5002Z" fill="#808080"/>
</svg>
