<svg width="24" height="25" viewBox="0 0 24 25" fill="none" xmlns="http://www.w3.org/2000/svg">
<path d="M23 19.8987V12.3148C23 11.5844 22.9994 11.219 22.91 10.8791C22.8309 10.5779 22.7009 10.2929 22.525 10.0353C22.3266 9.74466 22.0506 9.50363 21.4977 9.02264L14.8977 3.28138C13.8711 2.38836 13.3578 1.94208 12.7802 1.77224C12.2711 1.62259 11.7286 1.62259 11.2196 1.77224C10.6423 1.94195 10.1298 2.38781 9.10475 3.27948L2.50256 9.02264C1.94963 9.50363 1.67381 9.74466 1.47534 10.0353C1.29946 10.2929 1.1685 10.5779 1.08934 10.8791C1 11.219 1 11.5844 1 12.3148V19.8987C1 21.1725 1 21.8092 1.20933 22.3116C1.48844 22.9815 2.02344 23.5144 2.69727 23.7919C3.20264 24 3.84331 24 5.12465 24C6.40598 24 7.04736 24 7.55273 23.7919C8.22656 23.5144 8.76142 22.9817 9.04053 22.3118C9.24986 21.8094 9.25 21.1724 9.25 19.8986V18.5316C9.25 17.0217 10.4812 15.7977 12 15.7977C13.5188 15.7977 14.75 17.0217 14.75 18.5316V19.8986C14.75 21.1724 14.75 21.8094 14.9593 22.3118C15.2384 22.9817 15.7734 23.5144 16.4473 23.7919C16.9526 24 17.5933 24 18.8746 24C20.156 24 20.7974 24 21.3027 23.7919C21.9766 23.5144 22.5114 22.9815 22.7905 22.3116C22.9999 21.8092 23 21.1725 23 19.8987Z" stroke="black" stroke-width="1.5" stroke-linecap="round" stroke-linejoin="round"/>
</svg>
