<svg width="25" height="24" viewBox="0 0 25 24" fill="none" xmlns="http://www.w3.org/2000/svg">
<g clip-path="url(#clip0_10_3448)">
<path d="M23.375 19.5H21.875V12.75L22.0944 12.9694C22.2354 13.1101 22.4265 13.1891 22.6257 13.1889C22.8249 13.1887 23.0158 13.1094 23.1566 12.9684C23.2973 12.8275 23.3763 12.6363 23.3761 12.4371C23.3759 12.2379 23.2966 12.047 23.1556 11.9062L13.9353 2.68875C13.654 2.40766 13.2727 2.24976 12.875 2.24976C12.4773 2.24976 12.096 2.40766 11.8147 2.68875L2.59438 11.9062C2.45377 12.047 2.37483 12.2378 2.37491 12.4367C2.375 12.6357 2.45411 12.8264 2.59484 12.967C2.73557 13.1076 2.9264 13.1866 3.12533 13.1865C3.32427 13.1864 3.51502 13.1073 3.65562 12.9666L3.875 12.75V19.5H2.375C2.17609 19.5 1.98532 19.579 1.84467 19.7197C1.70402 19.8603 1.625 20.0511 1.625 20.25C1.625 20.4489 1.70402 20.6397 1.84467 20.7803C1.98532 20.921 2.17609 21 2.375 21H23.375C23.5739 21 23.7647 20.921 23.9053 20.7803C24.046 20.6397 24.125 20.4489 24.125 20.25C24.125 20.0511 24.046 19.8603 23.9053 19.7197C23.7647 19.579 23.5739 19.5 23.375 19.5ZM15.125 19.5H10.625V15C10.625 14.9005 10.6645 14.8052 10.7348 14.7348C10.8052 14.6645 10.9005 14.625 11 14.625H14.75C14.8495 14.625 14.9448 14.6645 15.0152 14.7348C15.0855 14.8052 15.125 14.9005 15.125 15V19.5Z" fill="black"/>
</g>
<defs>
<clipPath id="clip0_10_3448">
<rect width="24" height="24" fill="white" transform="translate(0.875)"/>
</clipPath>
</defs>
</svg>
