<svg width="23" height="22" viewBox="0 0 23 22" fill="none" xmlns="http://www.w3.org/2000/svg">
<path d="M1.32617 6.1739V3.63042C1.32617 2.95585 1.59414 2.30891 2.07114 1.83191C2.54813 1.35492 3.19508 1.08694 3.86965 1.08694H6.41313M1.32617 16.3478V18.8913C1.32617 19.5659 1.59414 20.2128 2.07114 20.6898C2.54813 21.1668 3.19508 21.4348 3.86965 21.4348H6.41313M16.587 1.08694H19.1305C19.8051 1.08694 20.452 1.35492 20.929 1.83191C21.406 2.30891 21.674 2.95585 21.674 3.63042V6.1739M16.587 21.4348H19.1305C19.8051 21.4348 20.452 21.1668 20.929 20.6898C21.406 20.2128 21.674 19.5659 21.674 18.8913V16.3478M7.68487 8.71738H7.69759M15.3153 8.71738H15.328M8.32074 15.0761C8.73517 15.4991 9.22984 15.8351 9.77577 16.0645C10.3217 16.2939 10.9079 16.4121 11.5001 16.4121C12.0923 16.4121 12.6785 16.2939 13.2244 16.0645C13.7703 15.8351 14.265 15.4991 14.6794 15.0761" stroke="black" stroke-width="2" stroke-linecap="round" stroke-linejoin="round"/>
</svg>
