<svg width="22" height="21" viewBox="0 0 22 21" fill="none" xmlns="http://www.w3.org/2000/svg">
<path d="M19.346 7.35066L18.9798 7.14693C18.923 7.1153 18.895 7.09942 18.8675 7.08297C18.5944 6.91939 18.3643 6.69337 18.1963 6.42296C18.1794 6.39575 18.1635 6.36722 18.1309 6.31083C18.0984 6.25451 18.0819 6.22597 18.0667 6.19772C17.9161 5.9164 17.8346 5.60289 17.8297 5.2838C17.8292 5.25172 17.8293 5.21894 17.8304 5.15378L17.8376 4.72852C17.849 4.04799 17.8548 3.70667 17.7591 3.40035C17.6742 3.12827 17.5321 2.87766 17.3423 2.66499C17.1278 2.42458 16.8308 2.25308 16.2363 1.9105L15.7425 1.62594C15.1497 1.28431 14.8532 1.11344 14.5384 1.0483C14.26 0.990672 13.9726 0.993343 13.6952 1.05563C13.382 1.12592 13.0892 1.30125 12.504 1.65169L12.5006 1.65328L12.1468 1.86514C12.0909 1.89864 12.0625 1.91553 12.0345 1.93112C11.7562 2.08584 11.4456 2.17139 11.1273 2.1816C11.0953 2.18263 11.0626 2.18263 10.9974 2.18263C10.9326 2.18263 10.8985 2.18263 10.8665 2.1816C10.5476 2.17134 10.2363 2.08533 9.9576 1.92997C9.92952 1.91431 9.90173 1.89729 9.84567 1.86364L9.48959 1.64986C8.90032 1.2961 8.60524 1.11895 8.29037 1.0483C8.0118 0.9858 7.72346 0.984071 7.444 1.04244C7.12845 1.10835 6.83186 1.28049 6.23868 1.62477L6.23604 1.62594L5.74838 1.90897L5.74298 1.91227C5.15514 2.25345 4.8605 2.42445 4.64779 2.66387C4.45903 2.87633 4.31794 3.12655 4.23349 3.39791C4.13804 3.70465 4.14312 4.0467 4.15463 4.73043L4.16177 5.15509C4.16285 5.2194 4.16473 5.25135 4.16426 5.28298C4.15953 5.60272 4.07695 5.91687 3.92584 6.19869C3.91089 6.22656 3.89479 6.25444 3.86263 6.31011C3.83045 6.36582 3.81487 6.39352 3.79818 6.42041C3.62946 6.69226 3.39823 6.9196 3.12343 7.08346C3.09624 7.09967 3.0676 7.11525 3.01131 7.14645L2.64974 7.34681C2.04818 7.68018 1.74746 7.84701 1.52865 8.08443C1.33508 8.29446 1.18885 8.54358 1.09958 8.8149C0.998682 9.1216 0.998767 9.46552 1.00033 10.1533L1.00161 10.7154C1.00316 11.3986 1.00529 11.7399 1.10641 12.0446C1.19588 12.3141 1.34104 12.5617 1.53353 12.7705C1.75111 13.0064 2.04883 13.1722 2.64584 13.5044L3.00418 13.7037C3.06516 13.7376 3.09585 13.7544 3.12526 13.7721C3.39757 13.9361 3.62699 14.1628 3.79427 14.4331C3.81235 14.4623 3.8297 14.4926 3.86439 14.5532C3.89865 14.613 3.91618 14.643 3.93203 14.673C4.0787 14.9507 4.15723 15.2592 4.16259 15.5732C4.16316 15.6071 4.16267 15.6414 4.16151 15.7104L4.15463 16.1179C4.14304 16.804 4.138 17.1474 4.23402 17.455C4.31896 17.7271 4.46094 17.9777 4.65072 18.1904C4.86525 18.4308 5.16264 18.6022 5.75717 18.9448L6.25087 19.2293C6.84372 19.5709 7.14004 19.7416 7.45478 19.8067C7.73323 19.8644 8.02074 19.8621 8.29818 19.7998C8.61176 19.7294 8.90557 19.5535 9.49252 19.2021L9.84634 18.9902C9.90232 18.9567 9.93066 18.9399 9.95871 18.9243C10.237 18.7696 10.5473 18.6836 10.8656 18.6734C10.8976 18.6723 10.9303 18.6723 10.9955 18.6723C11.0609 18.6723 11.0935 18.6723 11.1256 18.6734C11.4445 18.6836 11.7568 18.7699 12.0355 18.9253C12.06 18.9389 12.0846 18.9537 12.1277 18.9796L12.5039 19.2054C13.0932 19.5592 13.3877 19.7359 13.7026 19.8065C13.9811 19.869 14.2697 19.8716 14.5492 19.8132C14.8646 19.7473 15.1618 19.5748 15.7547 19.2307L16.2497 18.9434C16.8379 18.6021 17.1328 18.4309 17.3456 18.1914C17.5344 17.9789 17.6756 17.7288 17.7601 17.4574C17.8549 17.1529 17.8491 16.8135 17.8378 16.1396L17.8304 15.7002C17.8293 15.6358 17.8292 15.6039 17.8297 15.5722C17.8344 15.2525 17.9156 14.9381 18.0667 14.6563C18.0817 14.6285 18.0979 14.6004 18.1299 14.5449C18.1621 14.4892 18.1788 14.4614 18.1955 14.4345C18.3642 14.1627 18.5956 13.9351 18.8704 13.7713C18.8973 13.7553 18.9249 13.74 18.9799 13.7095L18.9818 13.7086L19.3433 13.5083C19.9449 13.1749 20.2462 13.0079 20.465 12.7705C20.6586 12.5604 20.8046 12.3117 20.8939 12.0403C20.9942 11.7354 20.9934 11.3935 20.9919 10.7138L20.9906 10.1396C20.989 9.45644 20.9882 9.11513 20.887 8.81051C20.7976 8.54101 20.6516 8.29334 20.4591 8.08458C20.2418 7.84884 19.9436 7.68299 19.3478 7.35151L19.346 7.35066Z" stroke="black" stroke-width="2" stroke-linecap="round" stroke-linejoin="round"/>
<path d="M6.99642 10.4277C6.99642 12.6368 8.78728 14.4277 10.9964 14.4277C13.2056 14.4277 14.9964 12.6368 14.9964 10.4277C14.9964 8.21856 13.2056 6.4277 10.9964 6.4277C8.78728 6.4277 6.99642 8.21856 6.99642 10.4277Z" stroke="black" stroke-width="2" stroke-linecap="round" stroke-linejoin="round"/>
</svg>
